<?xml version="1.0" standalone="no"?>
<!DOCTYPE svg PUBLIC "-//W3C//DTD SVG 20010904//EN"
 "http://www.w3.org/TR/2001/REC-SVG-20010904/DTD/svg10.dtd">
<svg version="1.0" xmlns="http://www.w3.org/2000/svg"
 width="100.000000pt" height="100.000000pt" viewBox="0 0 100.000000 100.000000"
 preserveAspectRatio="xMidYMid meet">

<g transform="translate(0.000000,100.000000) scale(0.100000,-0.100000)"
fill="#000000" stroke="none">
<path d="M401 989 c-71 -12 -166 -59 -225 -110 -26 -23 -45 -43 -43 -46 3 -2
22 6 43 19 58 34 144 32 206 -5 52 -30 82 -67 102 -124 l13 -38 23 45 c60 121
176 171 287 125 20 -8 38 -13 40 -11 8 7 -82 73 -136 101 -58 29 -166 55 -221
54 -19 -1 -59 -5 -89 -10z"/>
<path d="M47 703 c-53 -103 -60 -251 -18 -363 l21 -55 75 3 75 4 0 -44 0 -44
-65 4 c-55 4 -65 2 -65 -12 0 -11 9 -16 28 -16 15 0 44 -3 65 -6 36 -6 37 -8
32 -38 -5 -29 -3 -33 52 -62 156 -85 334 -87 488 -5 l50 26 -41 3 c-39 3 -42
5 -46 37 -3 30 -1 34 25 39 16 3 45 6 64 6 30 0 33 -2 23 -19 -14 -27 -13 -61
3 -61 12 0 37 44 37 66 0 8 12 10 40 7 32 -5 40 -2 40 10 0 9 -13 18 -32 23
-35 7 -57 29 -58 57 0 9 -7 17 -16 17 -13 0 -15 -8 -12 -35 l4 -35 -46 0 c-25
0 -55 -3 -67 -6 -21 -6 -23 -3 -23 35 0 30 -4 41 -15 41 -11 0 -15 -11 -15
-40 l0 -40 -55 0 -55 0 0 40 c0 33 -3 40 -20 40 -18 0 -20 -4 -14 -40 l7 -40
-34 0 c-19 0 -44 -3 -56 -6 -21 -6 -23 -3 -23 29 0 20 -4 39 -10 42 -33 20 14
25 273 27 l282 3 19 55 c27 78 28 225 1 300 l-19 55 -8 -59 c-10 -76 -47 -139
-101 -170 -119 -70 -252 -28 -312 101 l-27 56 -27 -54 c-47 -95 -153 -145
-250 -119 -101 27 -177 148 -152 243 14 57 7 58 -22 0z m306 -449 c35 -72 25
-82 -77 -68 l-46 7 0 48 0 49 53 0 c49 0 53 -2 70 -36z m144 -116 c-13 -32
-16 -33 -76 -36 l-63 -3 23 30 c22 27 43 35 107 39 21 2 21 1 9 -30z m167 10
c12 -46 9 -48 -64 -48 -73 0 -76 2 -64 48 6 20 13 22 64 22 51 0 58 -2 64 -22z
m-344 2 c26 0 27 -2 17 -25 -11 -22 -18 -25 -63 -25 l-51 0 5 31 c4 28 7 30
35 25 16 -3 42 -6 57 -6z"/>
<path d="M242 674 c-15 -10 -22 -25 -22 -49 0 -60 67 -86 108 -42 28 30 28 58
-1 85 -27 26 -54 28 -85 6z"/>
<path d="M646 668 c-22 -32 -20 -61 7 -86 30 -28 58 -28 85 1 42 44 16 107
-43 107 -24 0 -39 -7 -49 -22z"/>
</g>
</svg>
